<mxfile host="app.diagrams.net" modified="2024-05-05T17:15:59.498Z" agent="Mozilla/5.0 (Windows NT 10.0; Win64; x64) AppleWebKit/537.36 (KHTML, like Gecko) Chrome/124.0.0.0 Safari/537.36 Edg/124.0.0.0" version="24.3.1" etag="-V8VVSuVpMVA5l8CCgX7" type="github">
  <diagram name="Page-1" id="doZMQrmbDjvAQ_qHzHq3">
    <mxGraphModel>
      <root>
        <mxCell id="0" />
        <mxCell id="1" parent="0" />
      </root>
    </mxGraphModel>
  </diagram>
</mxfile>
